<?xml version="1.0" encoding="utf-8"?>
<!-- Generator: Adobe Illustrator 26.0.1, SVG Export Plug-In . SVG Version: 6.00 Build 0)  -->
<svg version="1.1" xmlns="http://www.w3.org/2000/svg" xmlns:xlink="http://www.w3.org/1999/xlink" x="0px" y="0px"
	 viewBox="0 0 64 64" style="enable-background:new 0 0 64 64;" xml:space="preserve">
<style type="text/css">
	.st0{display:none;}
	.st1{display:inline;}
	.st2{fill:#8C7C79;}
	.st3{fill:#FFFFFF;}
	.st4{fill:#2F2B33;}
	.st5{fill:#856E5A;}
	.st6{fill:#4B3D44;}
	.st7{fill:#655356;}
	.st8{fill:#CDA87B;}
	.st9{fill:#DDCF99;}
	.st10{fill:#AAA25C;}
	.st11{fill:#A99C8D;}
	.st12{fill:#A88A5D;}
	.st13{fill:#E5E1D1;}
</style>
<g id="Calque_1" class="st0">
	<g class="st1">
		<polygon class="st2" points="20,12 12,12 8,56 23.9,56 		"/>
	</g>
	<g class="st1">
		<polygon class="st2" points="52,12 44,12 40,56 56,56 		"/>
	</g>
	<g class="st1">
		<polygon class="st2" points="20,12 12,12 40,56 56,56 		"/>
	</g>
</g>
<g id="Calque_3">
	<g>
		<path class="st3" d="M42.7,56"/>
		<line class="st3" x1="48" y1="60" x2="44" y2="60"/>
		<rect x="44" y="56" width="4" height="4"/>
		<rect x="40" y="56" width="4" height="4"/>
		<rect x="36" y="56" width="4" height="4"/>
		<rect x="32" y="56" width="4" height="4"/>
		<rect x="28" y="56" width="4" height="4"/>
		<rect x="24" y="56" width="4" height="4"/>
		<rect x="48" y="52" width="4" height="4"/>
		<rect x="44" y="52" class="st4" width="4" height="4"/>
		<rect x="40" y="52" class="st4" width="4" height="4"/>
		<rect x="36" y="52" class="st5" width="4" height="4"/>
		<rect x="32" y="52" class="st5" width="4" height="4"/>
		<rect x="28" y="52" class="st6" width="4" height="4"/>
		<rect x="24" y="52" class="st6" width="4" height="4"/>
		<rect x="20" y="52" width="4" height="4"/>
		<rect x="16" y="52" width="4" height="4"/>
		<rect x="12" y="52" width="4" height="4"/>
		<rect x="52" y="48" width="4" height="4"/>
		<rect x="48" y="48" class="st6" width="4" height="4"/>
		<rect x="44" y="48" class="st7" width="4" height="4"/>
		<rect x="40" y="48" class="st4" width="4" height="4"/>
		<rect x="36" y="48" class="st6" width="4" height="4"/>
		<rect x="32" y="48" class="st6" width="4" height="4"/>
		<rect x="28" y="48" class="st6" width="4" height="4"/>
		<rect x="24" y="48" class="st6" width="4" height="4"/>
		<rect x="20" y="48" class="st6" width="4" height="4"/>
		<rect x="16" y="48" class="st6" width="4" height="4"/>
		<rect x="12" y="48" class="st4" width="4" height="4"/>
		<rect x="8" y="48" width="4" height="4"/>
		<rect x="56" y="44" width="4" height="4"/>
		<rect x="52" y="44" class="st4" width="4" height="4"/>
		<rect x="48" y="44" class="st6" width="4" height="4"/>
		<rect x="44" y="44" class="st5" width="4" height="4"/>
		<rect x="40" y="44" class="st6" width="4" height="4"/>
		<rect x="36" y="44" class="st6" width="4" height="4"/>
		<rect x="32" y="44" class="st8" width="4" height="4"/>
		<rect x="28" y="44" class="st9" width="4" height="4"/>
		<rect x="24" y="44" class="st9" width="4" height="4"/>
		<rect x="20" y="44" class="st8" width="4" height="4"/>
		<rect x="16" y="44" class="st7" width="4" height="4"/>
		<rect x="12" y="44" class="st4" width="4" height="4"/>
		<rect x="8" y="44" class="st4" width="4" height="4"/>
		<rect x="4" y="44" width="4" height="4"/>
		<rect x="56" y="40" width="4" height="4"/>
		<rect x="52" y="40" class="st4" width="4" height="4"/>
		<rect x="48" y="40" class="st10" width="4" height="4"/>
		<rect x="44" y="40" class="st9" width="4" height="4"/>
		<rect x="40" y="40" class="st6" width="4" height="4"/>
		<rect x="36" y="40" class="st10" width="4" height="4"/>
		<rect x="32" y="40" class="st7" width="4" height="4"/>
		<rect x="28" y="40" class="st6" width="4" height="4"/>
		<rect x="24" y="40" class="st6" width="4" height="4"/>
		<rect x="20" y="40" class="st11" width="4" height="4"/>
		<rect x="16" y="40" class="st9" width="4" height="4"/>
		<rect x="12" y="40" class="st12" width="4" height="4"/>
		<rect x="8" y="40" class="st4" width="4" height="4"/>
		<rect x="4" y="40" width="4" height="4"/>
		<rect x="56" y="36" width="4" height="4"/>
		<rect x="52" y="36" class="st12" width="4" height="4"/>
		<rect x="48" y="36" class="st12" width="4" height="4"/>
		<rect x="44" y="36" class="st4" width="4" height="4"/>
		<rect x="40" y="36" class="st6" width="4" height="4"/>
		<rect x="36" y="36" class="st10" width="4" height="4"/>
		<rect x="32" y="36" class="st5" width="4" height="4"/>
		<rect x="28" y="36" class="st7" width="4" height="4"/>
		<rect x="24" y="36" class="st7" width="4" height="4"/>
		<rect x="20" y="36" class="st9" width="4" height="4"/>
		<rect x="16" y="36" class="st13" width="4" height="4"/>
		<rect x="12" y="36" class="st6" width="4" height="4"/>
		<rect x="8" y="36" class="st12" width="4" height="4"/>
		<rect x="4" y="36" width="4" height="4"/>
		<rect x="56" y="32" width="4" height="4"/>
		<rect x="52" y="32" class="st6" width="4" height="4"/>
		<rect x="48" y="32" class="st4" width="4" height="4"/>
		<rect x="44" y="32" class="st4" width="4" height="4"/>
		<rect x="40" y="32" class="st10" width="4" height="4"/>
		<rect x="36" y="32" class="st12" width="4" height="4"/>
		<rect x="32" y="32" class="st5" width="4" height="4"/>
		<rect x="28" y="32" class="st5" width="4" height="4"/>
		<rect x="24" y="32" class="st5" width="4" height="4"/>
		<rect x="20" y="32" class="st5" width="4" height="4"/>
		<rect x="16" y="32" class="st5" width="4" height="4"/>
		<rect x="12" y="32" class="st7" width="4" height="4"/>
		<rect x="8" y="32" class="st10" width="4" height="4"/>
		<rect x="4" y="32" width="4" height="4"/>
		<rect x="56" y="28" width="4" height="4"/>
		<rect x="52" y="28" class="st7" width="4" height="4"/>
		<rect x="48" y="28" class="st4" width="4" height="4"/>
		<rect x="44" y="28" class="st6" width="4" height="4"/>
		<rect x="40" y="28" class="st9" width="4" height="4"/>
		<rect x="36" y="28" class="st10" width="4" height="4"/>
		<rect x="32" y="28" class="st5" width="4" height="4"/>
		<rect x="28" y="28" class="st5" width="4" height="4"/>
		<rect x="24" y="28" class="st5" width="4" height="4"/>
		<rect x="20" y="28" class="st5" width="4" height="4"/>
		<rect x="16" y="28" class="st5" width="4" height="4"/>
		<rect x="12" y="28" class="st5" width="4" height="4"/>
		<rect x="8" y="28" class="st10" width="4" height="4"/>
		<rect x="4" y="28" width="4" height="4"/>
		<rect x="56" y="24" width="4" height="4"/>
		<rect x="52" y="24" class="st7" width="4" height="4"/>
		<rect x="48" y="24" class="st6" width="4" height="4"/>
		<rect x="44" y="24" class="st9" width="4" height="4"/>
		<rect x="40" y="24" class="st9" width="4" height="4"/>
		<rect x="36" y="24" class="st12" width="4" height="4"/>
		<rect x="32" y="24" class="st10" width="4" height="4"/>
		<rect x="28" y="24" class="st10" width="4" height="4"/>
		<rect x="24" y="24" class="st12" width="4" height="4"/>
		<rect x="20" y="24" class="st5" width="4" height="4"/>
		<rect x="16" y="24" class="st5" width="4" height="4"/>
		<rect x="12" y="24" class="st5" width="4" height="4"/>
		<rect x="8" y="24" class="st10" width="4" height="4"/>
		<rect x="4" y="24" width="4" height="4"/>
		<rect x="52" y="20" width="4" height="4"/>
		<rect x="48" y="20" class="st10" width="4" height="4"/>
		<rect x="44" y="20" class="st9" width="4" height="4"/>
		<rect x="40" y="20" class="st12" width="4" height="4"/>
		<rect x="36" y="20" class="st12" width="4" height="4"/>
		<rect x="32" y="20" class="st12" width="4" height="4"/>
		<rect x="28" y="20" class="st12" width="4" height="4"/>
		<rect x="24" y="20" class="st8" width="4" height="4"/>
		<rect x="20" y="20" class="st8" width="4" height="4"/>
		<rect x="16" y="20" class="st12" width="4" height="4"/>
		<rect x="12" y="20" class="st12" width="4" height="4"/>
		<rect x="8" y="20" class="st8" width="4" height="4"/>
		<rect x="4" y="20" width="4" height="4"/>
		<rect x="48" y="16" width="4" height="4"/>
		<rect x="44" y="16" class="st6" width="4" height="4"/>
		<rect x="40" y="16" class="st5" width="4" height="4"/>
		<rect x="36" y="16" class="st12" width="4" height="4"/>
		<rect x="32" y="16" class="st12" width="4" height="4"/>
		<rect x="28" y="16" class="st12" width="4" height="4"/>
		<rect x="24" y="16" class="st12" width="4" height="4"/>
		<rect x="20" y="16" class="st12" width="4" height="4"/>
		<rect x="16" y="16" class="st9" width="4" height="4"/>
		<rect x="12" y="16" class="st9" width="4" height="4"/>
		<rect x="8" y="16" width="4" height="4"/>
		<rect x="48" y="12" width="4" height="4"/>
		<rect x="44" y="12" class="st10" width="4" height="4"/>
		<rect x="40" y="12" class="st6" width="4" height="4"/>
		<rect x="36" y="12" class="st10" width="4" height="4"/>
		<rect x="32" y="12" class="st5" width="4" height="4"/>
		<rect x="28" y="12" class="st12" width="4" height="4"/>
		<rect x="24" y="12" class="st12" width="4" height="4"/>
		<rect x="20" y="12" class="st12" width="4" height="4"/>
		<rect x="16" y="12" class="st10" width="4" height="4"/>
		<rect x="12" y="12" class="st9" width="4" height="4"/>
		<rect x="8" y="12" width="4" height="4"/>
		<rect x="48" y="8" width="4" height="4"/>
		<rect x="44" y="8" class="st12" width="4" height="4"/>
		<rect x="40" y="8" class="st9" width="4" height="4"/>
		<rect x="36" y="8" class="st9" width="4" height="4"/>
		<rect x="32" y="8" width="4" height="4"/>
		<rect x="28" y="8" width="4" height="4"/>
		<rect x="24" y="8" class="st10" width="4" height="4"/>
		<rect x="20" y="8" class="st8" width="4" height="4"/>
		<rect x="16" y="8" class="st8" width="4" height="4"/>
		<rect x="12" y="8" width="4" height="4"/>
		<rect x="44" y="4" width="4" height="4"/>
		<rect x="40" y="4" width="4" height="4"/>
		<rect x="36" y="4" width="4" height="4"/>
		<rect x="24" y="4" width="4" height="4"/>
		<rect x="20" y="4" width="4" height="4"/>
		<rect x="16" y="4" width="4" height="4"/>
	</g>
</g>
<g id="Calque_2" class="st0">
	<g class="st1">
		<path class="st4" d="M19.7,11.7c0.7,0,1.3,0.3,1.8,0.9l27.2,36.3c0.5,0.7,0.6,1.5,0.2,2.3c-0.4,0.8-1.1,1.2-2,1.2h-2.7
			c-0.7,0-1.3-0.3-1.8-0.9L15.3,15.2c-0.5-0.7-0.6-1.5-0.2-2.3c0.4-0.8,1.1-1.2,2-1.2H19.7 M19.7,10.7h-2.7c-2.6,0-4.1,3-2.6,5.1
			l27.2,36.3c0.6,0.8,1.6,1.3,2.6,1.3h2.7c2.6,0,4.1-3,2.6-5.1L22.3,11.9C21.7,11.1,20.7,10.7,19.7,10.7L19.7,10.7z"/>
	</g>
	<g class="st1">
		<path class="st4" d="M50.1,11.7c1.2,0,2.2,1,2.2,2.2v36.3c0,1.2-1,2.2-2.2,2.2h-4.3c-1.2,0-2.2-1-2.2-2.2V13.9
			c0-1.2,1-2.2,2.2-2.2H50.1 M50.1,10.7h-4.3c-1.8,0-3.2,1.4-3.2,3.2v36.3c0,1.8,1.4,3.2,3.2,3.2h4.3c1.8,0,3.2-1.4,3.2-3.2V13.9
			C53.3,12.1,51.9,10.7,50.1,10.7L50.1,10.7z"/>
	</g>
	<g class="st1">
		<path class="st4" d="M18.1,11.7c1.2,0,2.2,1,2.2,2.2v36.3c0,1.2-1,2.2-2.2,2.2h-4.3c-1.2,0-2.2-1-2.2-2.2V13.9
			c0-1.2,1-2.2,2.2-2.2H18.1 M18.1,10.7h-4.3c-1.8,0-3.2,1.4-3.2,3.2v36.3c0,1.8,1.4,3.2,3.2,3.2h4.3c1.8,0,3.2-1.4,3.2-3.2V13.9
			C21.3,12.1,19.9,10.7,18.1,10.7L18.1,10.7z"/>
	</g>
</g>
</svg>
